<svg aria-hidden="true" style="position: absolute; width: 0; height: 0; overflow: hidden;" version="1.1" xmlns="http://www.w3.org/2000/svg" xmlns:xlink="http://www.w3.org/1999/xlink">
<defs>
<symbol id="icon-small-rain-sun" viewBox="0 0 32 32">
<path fill="#000" style="fill: var(--color1, #000)" d="M21.333 16c2.946 0 5.333-2.388 5.333-5.333s-2.388-5.333-5.333-5.333c-2.946 0-5.333 2.388-5.333 5.333s2.388 5.333 5.333 5.333z"></path>
<path fill="#ffb300" style="fill: var(--color2, #ffb300)" d="M20.64 0.973l0.347 1.969c0.232 1.313-1.739 1.66-1.969 0.347l-0.347-1.969c-0.232-1.313 1.739-1.66 1.969-0.347zM27.697 3.321l-1.147 1.639c-0.765 1.092-2.403-0.055-1.639-1.147l1.147-1.639c0.765-1.092 2.403 0.055 1.639 1.147zM13.989 4.303l1.639 1.147c1.092 0.765-0.055 2.403-1.147 1.639l-1.639-1.147c-1.092-0.765 0.055-2.403 1.147-1.639zM28.188 14.244l1.639 1.147c1.092 0.765-0.055 2.403-1.147 1.639l-1.639-1.147c-1.092-0.765 0.055-2.403 1.147-1.639zM31.028 9.972l-1.969 0.347c-1.313 0.232-1.66-1.739-0.347-1.969l1.969-0.347c1.313-0.232 1.66 1.739 0.347 1.969z"></path>
<path fill="#66afeb" style="fill: var(--color3, #66afeb)" d="M9.479 25.951l-1.4 3.332c-0.213 0.509 0.025 1.096 0.535 1.309s1.096-0.025 1.309-0.535l1.4-3.332c0.213-0.509-0.025-1.096-0.535-1.309s-1.096 0.025-1.309 0.535zM16.145 24.617l-1.4 3.332c-0.213 0.509 0.025 1.096 0.535 1.309s1.096-0.025 1.309-0.535l1.4-3.332c0.213-0.509-0.025-1.096-0.535-1.309s-1.096 0.025-1.309 0.535z"></path>
<path fill="#000" style="fill: var(--color1, #000)" d="M8 22.667c-2.945 0-5.333-2.388-5.333-5.333s2.388-5.333 5.333-5.333c0.556 0 1.091 0.085 1.595 0.243 0.751-2.456 3.036-4.243 5.739-4.243 3.313 0 6 2.687 6 6 0 0.313-0.024 0.62-0.071 0.92 0.437-0.164 0.909-0.253 1.404-0.253 2.209 0 4 1.791 4 4s-1.791 4-4 4h-14.667z"></path>
<path fill="#000" style="fill: var(--color1, #000)" d="M9.333 14c0 3.313 2.687 6 6 6 3.001 0 5.487-2.203 5.929-5.080 0.437-0.164 0.909-0.253 1.404-0.253 2.209 0 4 1.791 4 4s-1.791 4-4 4h-14.667c-2.945 0-5.333-2.388-5.333-5.333s2.388-5.333 5.333-5.333c0.556 0 1.091 0.085 1.595 0.243-0.171 0.556-0.261 1.145-0.261 1.757z"></path>
</symbol>
<symbol id="icon-rain" viewBox="0 0 32 32">
<path fill="#66afeb" style="fill: var(--color3, #66afeb)" d="M9.479 21.951l-1.4 3.332c-0.213 0.509 0.025 1.096 0.535 1.309s1.096-0.025 1.309-0.535l1.4-3.332c0.213-0.509-0.025-1.096-0.535-1.309s-1.096 0.025-1.309 0.535zM20.145 21.951l-1.4 3.332c-0.213 0.509 0.025 1.096 0.535 1.309s1.096-0.025 1.309-0.535l1.4-3.332c0.213-0.509-0.025-1.096-0.535-1.309s-1.096 0.025-1.309 0.535zM14.812 20.617l-1.4 3.332c-0.213 0.509 0.025 1.096 0.535 1.309s1.096-0.025 1.309-0.535l1.4-3.332c0.213-0.509-0.025-1.096-0.535-1.309s-1.096 0.025-1.309 0.535z"></path>
<path fill="#000" style="fill: var(--color1, #000)" d="M9.333 18.667c-2.945 0-5.333-2.388-5.333-5.333s2.388-5.333 5.333-5.333c0.556 0 1.091 0.085 1.595 0.243 0.751-2.456 3.036-4.243 5.739-4.243 3.313 0 6 2.687 6 6 0 0.313-0.024 0.62-0.071 0.92 0.437-0.164 0.909-0.253 1.404-0.253 2.209 0 4 1.791 4 4s-1.791 4-4 4h-14.667z"></path>
<path fill="#000" style="fill: var(--color1, #000)" d="M10.667 10c0 3.313 2.687 6 6 6 3.001 0 5.487-2.203 5.929-5.080 0.437-0.164 0.909-0.253 1.404-0.253 2.209 0 4 1.791 4 4s-1.791 4-4 4h-14.667c-2.945 0-5.333-2.388-5.333-5.333s2.388-5.333 5.333-5.333c0.556 0 1.091 0.085 1.595 0.243-0.171 0.556-0.261 1.145-0.261 1.757z"></path>
</symbol>
<symbol id="icon-small-rain" viewBox="0 0 32 32">
<path fill="#66afeb" style="fill: var(--color3, #66afeb)" d="M10.812 21.951l-1.4 3.332c-0.213 0.509 0.025 1.096 0.535 1.309s1.096-0.025 1.309-0.535l1.4-3.332c0.213-0.509-0.025-1.096-0.535-1.309s-1.096 0.025-1.309 0.535zM17.479 20.617l-1.4 3.332c-0.213 0.509 0.025 1.096 0.535 1.309s1.096-0.025 1.309-0.535l1.4-3.332c0.213-0.509-0.025-1.096-0.535-1.309s-1.096 0.025-1.309 0.535z"></path>
<path fill="#000" style="fill: var(--color1, #000)" d="M9.333 18.667c-2.945 0-5.333-2.388-5.333-5.333s2.388-5.333 5.333-5.333c0.556 0 1.091 0.085 1.595 0.243 0.751-2.456 3.036-4.243 5.739-4.243 3.313 0 6 2.687 6 6 0 0.313-0.024 0.62-0.071 0.92 0.437-0.164 0.909-0.253 1.404-0.253 2.209 0 4 1.791 4 4s-1.791 4-4 4h-14.667z"></path>
<path fill="#000" style="fill: var(--color1, #000)" d="M10.667 10c0 3.313 2.687 6 6 6 3.001 0 5.487-2.203 5.929-5.080 0.437-0.164 0.909-0.253 1.404-0.253 2.209 0 4 1.791 4 4s-1.791 4-4 4h-14.667c-2.945 0-5.333-2.388-5.333-5.333s2.388-5.333 5.333-5.333c0.556 0 1.091 0.085 1.595 0.243-0.171 0.556-0.261 1.145-0.261 1.757z"></path>
</symbol>
<symbol id="icon-mainly-cloudy" viewBox="0 0 32 32">
<path fill="#73a5e6" style="fill: var(--color4, #73a5e6)" opacity="0.32" d="M25.333 18.667c2.209 0 4-1.791 4-4s-1.791-4-4-4h-0.041c0.027-0.219 0.041-0.441 0.041-0.667 0-2.945-2.388-5.333-5.333-5.333-2.333 0-4.317 1.499-5.040 3.585-0.513-0.164-1.059-0.252-1.627-0.252-2.945 0-5.333 2.388-5.333 5.333s2.388 5.333 5.333 5.333c0.46 0 0.907-0.059 1.333-0.168v0.168h10.667z"></path>
<path fill="#000" style="fill: var(--color1, #000)" d="M8 25.333c-2.945 0-5.333-2.388-5.333-5.333s2.388-5.333 5.333-5.333c0.556 0 1.091 0.085 1.595 0.243 0.751-2.456 3.036-4.243 5.739-4.243 3.313 0 6 2.687 6 6 0 0.313-0.024 0.62-0.071 0.92 0.437-0.164 0.909-0.253 1.404-0.253 2.209 0 4 1.791 4 4s-1.791 4-4 4h-14.667z"></path>
<path fill="#000" style="fill: var(--color1, #000)" d="M9.333 16.667c0 3.313 2.687 6 6 6 3.001 0 5.487-2.203 5.929-5.080 0.437-0.164 0.909-0.253 1.404-0.253 2.209 0 4 1.791 4 4s-1.791 4-4 4h-14.667c-2.945 0-5.333-2.388-5.333-5.333s2.388-5.333 5.333-5.333c0.556 0 1.091 0.085 1.595 0.243-0.171 0.556-0.261 1.145-0.261 1.757z"></path>
</symbol>
<symbol id="icon-sun" viewBox="0 0 32 32">
<path fill="#000" style="fill: var(--color1, #000)" d="M16.006 23.668c4.233 0 7.664-3.431 7.664-7.664s-3.431-7.664-7.664-7.664c-4.233 0-7.664 3.431-7.664 7.664s3.431 7.664 7.664 7.664z"></path>
<path fill="#ffb300" style="fill: var(--color2, #ffb300)" d="M23.209 1.6l-1.801 4.348c-0.587 1.416-2.712 0.536-2.125-0.88l1.801-4.348c0.587-1.416 2.712-0.536 2.125 0.88zM12.715 26.933l-1.801 4.348c-0.587 1.416-2.712 0.536-2.125-0.88l1.801-4.348c0.587-1.416 2.712-0.537 2.125 0.88zM31.281 10.917l-4.349 1.801c-1.416 0.587-2.296-1.537-0.88-2.124l4.349-1.801c1.416-0.587 2.296 1.537 0.88 2.124zM5.948 21.41l-4.349 1.801c-1.416 0.587-2.296-1.537-0.88-2.124l4.349-1.801c1.416-0.587 2.296 1.537 0.88 2.124zM30.401 23.212l-4.349-1.801c-1.416-0.587-0.536-2.711 0.88-2.124l4.349 1.801c1.416 0.587 0.536 2.711-0.88 2.124zM5.068 12.719l-4.349-1.801c-1.416-0.587-0.536-2.711 0.88-2.124l4.349 1.801c1.416 0.587 0.537 2.711-0.88 2.124zM10.912 0.719l1.801 4.348c0.587 1.416-1.537 2.296-2.125 0.88l-1.801-4.348c-0.587-1.416 1.537-2.296 2.125-0.88zM21.406 26.051l1.801 4.348c0.587 1.416-1.537 2.296-2.125 0.88l-1.801-4.348c-0.587-1.416 1.537-2.296 2.125-0.88z"></path>
</symbol>
<symbol id="icon-evaporator" viewBox="0 0 32 32">
<path fill="#afd1fd" style="fill: var(--color5, #afd1fd)" opacity="0.88" d="M21.754 14.473c-0.381-0-0.757-0.096-1.091-0.28s-0.617-0.448-0.823-0.769c-0.205 0.322-0.488 0.586-0.823 0.77s-0.71 0.279-1.091 0.279-0.757-0.096-1.091-0.279c-0.334-0.183-0.617-0.448-0.823-0.77-0.205 0.322-0.488 0.586-0.822 0.77s-0.71 0.279-1.091 0.279-0.757-0.096-1.091-0.279c-0.335-0.183-0.617-0.448-0.822-0.77-0.264 0.414-0.656 0.731-1.116 0.904s-0.963 0.192-1.435 0.054c-0.472-0.138-0.886-0.425-1.18-0.818s-0.454-0.871-0.454-1.363c0-0.095 0.038-0.186 0.105-0.253s0.158-0.105 0.253-0.105c0.095 0 0.186 0.038 0.253 0.105s0.105 0.158 0.105 0.253c-0.002 0.206 0.036 0.41 0.113 0.601s0.191 0.365 0.336 0.511c0.145 0.146 0.317 0.263 0.507 0.342s0.394 0.12 0.6 0.12c0.206 0 0.41-0.041 0.6-0.12s0.362-0.196 0.507-0.342c0.145-0.146 0.259-0.32 0.336-0.511s0.116-0.395 0.113-0.601c0-0.095 0.038-0.186 0.105-0.253s0.158-0.105 0.253-0.105 0.186 0.038 0.253 0.105c0.067 0.067 0.105 0.158 0.105 0.253-0.002 0.206 0.036 0.41 0.113 0.601s0.191 0.365 0.336 0.511 0.317 0.263 0.507 0.342c0.19 0.079 0.394 0.12 0.6 0.12s0.41-0.041 0.6-0.12c0.19-0.079 0.362-0.196 0.507-0.342s0.259-0.32 0.336-0.511c0.077-0.191 0.116-0.395 0.113-0.601 0-0.095 0.038-0.186 0.105-0.253s0.158-0.105 0.253-0.105c0.095 0 0.186 0.038 0.253 0.105s0.105 0.158 0.105 0.253c-0.002 0.206 0.036 0.41 0.113 0.601s0.191 0.365 0.336 0.511 0.317 0.263 0.507 0.342c0.19 0.079 0.394 0.12 0.6 0.12s0.41-0.041 0.6-0.12c0.19-0.079 0.362-0.196 0.507-0.342s0.259-0.32 0.336-0.511c0.077-0.191 0.116-0.395 0.113-0.601 0-0.095 0.038-0.186 0.105-0.253s0.158-0.105 0.253-0.105 0.186 0.038 0.253 0.105c0.067 0.067 0.105 0.158 0.105 0.253-0.002 0.206 0.036 0.41 0.113 0.601s0.191 0.365 0.336 0.511c0.145 0.146 0.317 0.263 0.507 0.342s0.394 0.12 0.6 0.12 0.41-0.041 0.6-0.12c0.19-0.079 0.362-0.196 0.507-0.342s0.259-0.32 0.336-0.511c0.077-0.191 0.116-0.395 0.113-0.601 0-0.095 0.038-0.186 0.105-0.253s0.158-0.105 0.253-0.105c0.095 0 0.186 0.038 0.253 0.105s0.105 0.158 0.105 0.253c-0.001 0.602-0.24 1.179-0.666 1.605s-1.003 0.665-1.605 0.666z"></path>
<path fill="#9aa1eb" style="fill: var(--color6, #9aa1eb)" opacity="0.88" d="M21.754 18.691c-0.381-0-0.757-0.096-1.091-0.28s-0.617-0.448-0.823-0.77c-0.205 0.322-0.488 0.586-0.822 0.77s-0.71 0.279-1.091 0.279-0.757-0.096-1.091-0.279c-0.334-0.183-0.617-0.448-0.822-0.77-0.205 0.322-0.488 0.586-0.822 0.77s-0.71 0.279-1.091 0.279c-0.381 0-0.757-0.096-1.091-0.279s-0.617-0.448-0.822-0.77c-0.264 0.414-0.656 0.732-1.116 0.905s-0.964 0.192-1.435 0.054c-0.472-0.138-0.886-0.425-1.181-0.818s-0.454-0.871-0.454-1.363c0-0.095 0.038-0.186 0.105-0.253s0.158-0.105 0.253-0.105 0.186 0.038 0.253 0.105c0.067 0.067 0.105 0.158 0.105 0.253-0.002 0.206 0.036 0.41 0.113 0.601s0.191 0.364 0.336 0.511 0.317 0.263 0.507 0.342c0.19 0.079 0.394 0.12 0.6 0.12s0.41-0.041 0.6-0.12c0.19-0.079 0.362-0.196 0.507-0.342s0.259-0.32 0.336-0.511c0.077-0.191 0.116-0.395 0.113-0.601 0-0.095 0.038-0.186 0.105-0.253s0.158-0.105 0.253-0.105 0.186 0.038 0.253 0.105c0.067 0.067 0.105 0.158 0.105 0.253-0.002 0.206 0.036 0.41 0.113 0.601s0.191 0.364 0.336 0.511 0.317 0.263 0.507 0.342c0.19 0.079 0.394 0.12 0.6 0.12s0.41-0.041 0.6-0.12c0.19-0.079 0.362-0.196 0.507-0.342s0.259-0.32 0.336-0.511c0.077-0.191 0.116-0.395 0.113-0.601 0-0.095 0.038-0.186 0.105-0.253s0.158-0.105 0.253-0.105 0.186 0.038 0.253 0.105c0.067 0.067 0.105 0.158 0.105 0.253-0.002 0.206 0.036 0.41 0.113 0.601s0.191 0.364 0.336 0.511c0.145 0.146 0.317 0.263 0.507 0.342s0.394 0.12 0.6 0.12 0.41-0.041 0.6-0.12c0.19-0.079 0.362-0.196 0.507-0.342s0.259-0.32 0.336-0.511c0.077-0.191 0.116-0.395 0.113-0.601 0-0.095 0.038-0.186 0.105-0.253s0.158-0.105 0.253-0.105c0.095 0 0.186 0.038 0.253 0.105s0.105 0.158 0.105 0.253c-0.002 0.206 0.036 0.41 0.113 0.601s0.191 0.364 0.336 0.511 0.317 0.263 0.507 0.342c0.19 0.079 0.394 0.12 0.6 0.12s0.41-0.041 0.6-0.12c0.19-0.079 0.362-0.196 0.507-0.342s0.259-0.32 0.336-0.511c0.077-0.191 0.116-0.395 0.113-0.601 0-0.095 0.038-0.186 0.105-0.253s0.158-0.105 0.253-0.105 0.186 0.038 0.253 0.105c0.067 0.067 0.105 0.158 0.105 0.253-0.001 0.602-0.24 1.179-0.666 1.605s-1.003 0.665-1.605 0.666z"></path>
<path fill="#bffdff" style="fill: var(--color7, #bffdff)" opacity="0.88" d="M17.615 4.121l-1.35-1.35c-0.033-0.033-0.073-0.060-0.116-0.078s-0.090-0.027-0.137-0.027c-0.047 0-0.093 0.009-0.137 0.027s-0.083 0.044-0.116 0.078l-1.35 1.35c-0.067 0.067-0.105 0.158-0.105 0.253s0.038 0.186 0.105 0.253c0.067 0.067 0.158 0.105 0.253 0.105s0.186-0.038 0.253-0.105l0.739-0.739v3.564c0 0.095 0.038 0.186 0.105 0.253s0.158 0.105 0.253 0.105 0.186-0.038 0.253-0.105c0.067-0.067 0.105-0.158 0.105-0.253v-3.564l0.739 0.739c0.033 0.033 0.073 0.060 0.116 0.078s0.090 0.027 0.137 0.027 0.093-0.009 0.137-0.027c0.043-0.018 0.083-0.044 0.116-0.078s0.059-0.073 0.078-0.116c0.018-0.043 0.027-0.090 0.027-0.137s-0.009-0.093-0.027-0.137c-0.018-0.043-0.044-0.083-0.078-0.116z"></path>
<path fill="#bffdff" style="fill: var(--color7, #bffdff)" opacity="0.88" d="M10.589 5.216c-0.033-0.033-0.073-0.060-0.116-0.078s-0.090-0.027-0.137-0.027c-0.047 0-0.094 0.009-0.137 0.027s-0.083 0.044-0.116 0.078l-1.35 1.35c-0.067 0.067-0.105 0.158-0.105 0.253s0.038 0.186 0.105 0.253c0.067 0.067 0.158 0.105 0.253 0.105s0.186-0.038 0.253-0.105l0.739-0.739v3.564c0 0.095 0.038 0.186 0.105 0.253s0.158 0.105 0.253 0.105 0.186-0.038 0.253-0.105c0.067-0.067 0.105-0.158 0.105-0.253v-3.564l0.739 0.739c0.067 0.065 0.158 0.101 0.251 0.1s0.183-0.038 0.25-0.105c0.066-0.066 0.104-0.156 0.105-0.25s-0.035-0.184-0.1-0.252l-1.35-1.35z"></path>
<path fill="#bffdff" style="fill: var(--color7, #bffdff)" opacity="0.88" d="M23.29 6.566l-1.35-1.35c-0.033-0.033-0.073-0.060-0.116-0.078s-0.090-0.027-0.137-0.027c-0.047 0-0.093 0.009-0.137 0.027s-0.083 0.044-0.116 0.078l-1.35 1.35c-0.034 0.033-0.061 0.072-0.080 0.116s-0.029 0.091-0.029 0.138c-0 0.047 0.009 0.095 0.027 0.138s0.044 0.084 0.078 0.117c0.034 0.034 0.073 0.060 0.117 0.078s0.091 0.027 0.139 0.027 0.094-0.010 0.138-0.029c0.044-0.019 0.083-0.046 0.116-0.080l0.739-0.739v3.564c0 0.095 0.038 0.186 0.105 0.253s0.158 0.105 0.253 0.105 0.186-0.038 0.253-0.105c0.067-0.067 0.105-0.158 0.105-0.253v-3.564l0.739 0.739c0.067 0.067 0.158 0.105 0.253 0.105s0.186-0.038 0.253-0.105c0.067-0.067 0.105-0.158 0.105-0.253s-0.038-0.186-0.105-0.253z"></path>
<path fill="#bffdff" style="fill: var(--color7, #bffdff)" opacity="0.88" d="M14.084 8.227c-0.047-0-0.094 0.009-0.137 0.027s-0.083 0.044-0.116 0.078c-0.033 0.033-0.060 0.073-0.078 0.116s-0.027 0.090-0.027 0.137v3.014c0 0.095 0.038 0.186 0.105 0.253s0.158 0.105 0.253 0.105 0.186-0.038 0.253-0.105c0.067-0.067 0.105-0.158 0.105-0.253v-3.014c0-0.047-0.009-0.094-0.027-0.137s-0.044-0.083-0.078-0.116c-0.033-0.033-0.073-0.060-0.116-0.078s-0.090-0.027-0.137-0.027z"></path>
<path fill="#bffdff" style="fill: var(--color7, #bffdff)" opacity="0.88" d="M17.94 8.227c-0.047-0-0.093 0.009-0.137 0.027s-0.083 0.044-0.116 0.078c-0.033 0.033-0.060 0.073-0.078 0.116s-0.027 0.090-0.027 0.137v3.014c0 0.095 0.038 0.186 0.105 0.253s0.158 0.105 0.253 0.105c0.095 0 0.186-0.038 0.253-0.105s0.105-0.158 0.105-0.253v-3.014c0-0.047-0.009-0.094-0.027-0.137s-0.044-0.083-0.078-0.116c-0.033-0.033-0.073-0.060-0.116-0.078s-0.090-0.027-0.137-0.027z"></path>
<path fill="#bffdff" style="fill: var(--color7, #bffdff)" opacity="0.88" d="M14.084 8.227c-0.047-0-0.094 0.009-0.137 0.027s-0.083 0.044-0.116 0.078c-0.033 0.033-0.060 0.073-0.078 0.116s-0.027 0.090-0.027 0.137v3.014c0 0.095 0.038 0.186 0.105 0.253s0.158 0.105 0.253 0.105 0.186-0.038 0.253-0.105c0.067-0.067 0.105-0.158 0.105-0.253v-3.014c0-0.047-0.009-0.094-0.027-0.137s-0.044-0.083-0.078-0.116c-0.033-0.033-0.073-0.060-0.116-0.078s-0.090-0.027-0.137-0.027z"></path>
<path fill="#bffdff" style="fill: var(--color7, #bffdff)" opacity="0.88" d="M17.94 8.227c-0.047-0-0.093 0.009-0.137 0.027s-0.083 0.044-0.116 0.078c-0.033 0.033-0.060 0.073-0.078 0.116s-0.027 0.090-0.027 0.137v3.014c0 0.095 0.038 0.186 0.105 0.253s0.158 0.105 0.253 0.105c0.095 0 0.186-0.038 0.253-0.105s0.105-0.158 0.105-0.253v-3.014c0-0.047-0.009-0.094-0.027-0.137s-0.044-0.083-0.078-0.116c-0.033-0.033-0.073-0.060-0.116-0.078s-0.090-0.027-0.137-0.027z"></path>
</symbol>
<symbol id="icon-thermometer" viewBox="0 0 32 32">
<path fill="#4f667a" style="fill: var(--color8, #4f667a)" d="M19.719 3.816h4.736c0.259 0 0.469-0.21 0.469-0.469s-0.21-0.469-0.469-0.469h-4.736c-0.259 0-0.469 0.21-0.469 0.469s0.21 0.469 0.469 0.469z"></path>
<path fill="#4f667a" style="fill: var(--color8, #4f667a)" d="M19.719 5.981h2.368c0.259 0 0.469-0.21 0.469-0.469s-0.21-0.469-0.469-0.469h-2.368c-0.259 0-0.469 0.21-0.469 0.469s0.21 0.469 0.469 0.469z"></path>
<path fill="#4f667a" style="fill: var(--color8, #4f667a)" d="M24.456 7.231h-4.736c-0.259 0-0.469 0.21-0.469 0.469s0.21 0.469 0.469 0.469h4.736c0.259 0 0.469-0.21 0.469-0.469s-0.21-0.469-0.469-0.469z"></path>
<path fill="#4f667a" style="fill: var(--color8, #4f667a)" d="M19.719 10.333h2.368c0.259 0 0.469-0.21 0.469-0.469s-0.21-0.469-0.469-0.469h-2.368c-0.259 0-0.469 0.21-0.469 0.469s0.21 0.469 0.469 0.469z"></path>
<path fill="#4f667a" style="fill: var(--color8, #4f667a)" d="M24.456 11.551h-4.736c-0.259 0-0.469 0.21-0.469 0.469s0.21 0.469 0.469 0.469h4.736c0.259 0 0.469-0.21 0.469-0.469s-0.21-0.469-0.469-0.469z"></path>
<path fill="#4f667a" style="fill: var(--color8, #4f667a)" d="M19.719 14.653h2.368c0.259 0 0.469-0.21 0.469-0.469s-0.21-0.469-0.469-0.469h-2.368c-0.259 0-0.469 0.21-0.469 0.469s0.21 0.469 0.469 0.469z"></path>
<path fill="#4f667a" style="fill: var(--color8, #4f667a)" d="M24.456 15.911h-4.736c-0.259 0-0.469 0.21-0.469 0.469s0.21 0.469 0.469 0.469h4.736c0.259 0 0.469-0.21 0.469-0.469s-0.21-0.469-0.469-0.469z"></path>
<path fill="#4f667a" style="fill: var(--color8, #4f667a)" d="M22.087 18.076h-2.368c-0.259 0-0.469 0.21-0.469 0.469s0.21 0.469 0.469 0.469h2.368c0.259 0 0.469-0.21 0.469-0.469s-0.21-0.469-0.469-0.469z"></path>
<path fill="#e9f5ff" style="fill: var(--color9, #e9f5ff)" d="M20.422 25.327c0 1.8-0.706 3.487-1.988 4.752-1.259 1.241-2.919 1.921-4.685 1.921-0.032 0-0.064 0-0.096-0.001-0.283-0.004-0.562-0.026-0.838-0.065-1.411-0.199-2.723-0.846-3.757-1.871-1.236-1.224-1.94-2.849-1.981-4.574-0.056-2.339 1.118-4.531 3.078-5.785v-16.11c0-1.658 1.128-3.056 2.656-3.47 0.299-0.081 0.613-0.124 0.937-0.124 1.981 0 3.594 1.612 3.594 3.594v16.11c1.906 1.221 3.079 3.351 3.079 5.623z"></path>
<path fill="#cdeaf7" style="fill: var(--color10, #cdeaf7)" d="M20.422 25.327c0 1.8-0.706 3.487-1.988 4.752-1.259 1.241-2.919 1.921-4.685 1.921-1.168 0-1.875 0-1.875 0 0.318 0 0.632-0.022 0.941-0.066 1.409-0.198 2.711-0.837 3.743-1.856 1.282-1.264 1.988-2.951 1.988-4.752 0-2.273-1.173-2.516-3.079-3.737v-17.996c0-1.658-1.128-3.056-2.656-3.47 0.299-0.081 0.613-0.124 0.938-0.124 1.981 0 3.594 1.612 3.594 3.594v16.11c1.906 1.221 3.079 3.351 3.079 5.623z"></path>
<path fill="#ff6e6e" style="fill: var(--color11, #ff6e6e)" d="M18.547 25.337c0 1.294-0.508 2.507-1.43 3.416-0.904 0.893-2.101 1.382-3.373 1.382-0.022 0-0.043 0-0.064-0.001-0.24-0.003-0.478-0.025-0.711-0.063-0.972-0.161-1.873-0.619-2.591-1.33-0.89-0.881-1.397-2.048-1.426-3.286-0.041-1.748 0.871-3.382 2.381-4.264 0.429-0.251 0.697-0.716 0.697-1.214v-16.373c0-0.666 0.381-1.246 0.938-1.531 0.234-0.121 0.5-0.188 0.781-0.188 0.948 0 1.718 0.771 1.718 1.719v16.373c0 0.498 0.268 0.963 0.697 1.214 1.469 0.859 2.383 2.448 2.383 4.147z"></path>
<path fill="#f44e92" style="fill: var(--color12, #f44e92)" d="M18.547 25.337c0 1.294-0.508 2.507-1.43 3.416-0.904 0.893-2.101 1.382-3.373 1.382-0.022 0-0.043 0-0.064-0.001-0.24-0.003-0.478-0.025-0.711-0.063 0.973-0.159 1.871-0.612 2.586-1.318 0.922-0.909 1.429-2.122 1.429-3.416 0-1.699-0.913-3.288-2.383-4.147-0.429-0.251-0.697-0.716-0.697-1.214v-16.373c0-0.666-0.381-1.245-0.937-1.531 0.234-0.121 0.5-0.188 0.781-0.188 0.948 0 1.718 0.771 1.718 1.719v16.373c0 0.498 0.268 0.963 0.697 1.214 1.469 0.859 2.383 2.447 2.383 4.147z"></path>
<path fill="#4f667a" style="fill: var(--color8, #4f667a)" d="M15.468 3.603v4.096h-3.437v-4.096c0-0.666 0.381-1.246 0.938-1.531 0.234-0.121 0.5-0.188 0.781-0.188 0.947 0 1.718 0.771 1.718 1.719z"></path>
<path fill="#3a5366" style="fill: var(--color13, #3a5366)" d="M15.468 3.603v4.096h-1.563v-4.096c0-0.666-0.381-1.245-0.937-1.531 0.234-0.121 0.5-0.188 0.781-0.188 0.948 0 1.718 0.771 1.718 1.719z"></path>
</symbol>
<symbol id="icon-theme" viewBox="0 0 32 32">
<path fill="#4793ff" style="fill: var(--color14, #4793ff)" d="M15.619 4.683v23.65c-5.517 0-10-4.383-10-9.783 0-2.6 1.033-5.050 2.917-6.9l7.083-6.967zM15.619 0l-9.417 9.267c-2.417 2.383-3.917 5.667-3.917 9.283 0 7.25 5.967 13.117 13.333 13.117s13.333-5.867 13.333-13.117c0-3.617-1.5-6.9-3.917-9.283l-9.417-9.267z"></path>
</symbol>
<symbol id="icon-logo" viewBox="0 0 32 32">
<path fill="#4793ff" style="fill: var(--color14, #4793ff)" d="M16 32c8.837 0 16-7.163 16-16s-7.163-16-16-16c-8.837 0-16 7.163-16 16s7.163 16 16 16z"></path>
<path fill="#424fdd" style="fill: var(--color15, #424fdd)" d="M32 16c0-1.282-0.152-2.529-0.437-3.724l-4.81-4.81-0.649 0.274-2.314-2.244c0 0-0.873 1.432-1.863 0.843l-1.554-1.515-0.092 2.208-15.955 15.745 9 9c0.87 0.146 1.763 0.224 2.674 0.224 8.837 0 16-7.163 16-16z"></path>
<path fill="#fdbf2d" style="fill: var(--color16, #fdbf2d)" d="M28.721 14.278l0.675-0.432-0.724-0.463c-0.784-0.501-0.995-1.553-0.466-2.318l0.489-0.707-0.79-0.137c-0.922-0.16-1.524-1.057-1.323-1.971l0.172-0.783-0.84 0.185c-0.909 0.2-1.802-0.394-1.969-1.309l-0.154-0.846-0.655 0.461c-0.765 0.539-1.825 0.33-2.33-0.458l-0.432-0.675-0.463 0.724c-0.501 0.784-1.553 0.995-2.318 0.466l-0.707-0.489-0.137 0.79c-0.16 0.922-1.057 1.524-1.971 1.323l-0.783-0.172 0.185 0.84c0.2 0.909-0.394 1.802-1.309 1.969l-0.846 0.154 0.461 0.655c0.539 0.765 0.33 1.825-0.458 2.33l-0.675 0.432 0.724 0.463c0.784 0.501 0.995 1.553 0.466 2.318l-0.489 0.707 0.79 0.137c0.922 0.16 1.524 1.057 1.323 1.971l-0.172 0.783 0.84-0.185c0.909-0.2 1.802 0.394 1.969 1.309l0.154 0.846 0.655-0.461c0.765-0.539 1.825-0.33 2.33 0.458l0.432 0.675 0.463-0.724c0.501-0.784 1.553-0.995 2.318-0.466l0.707 0.489 0.137-0.79c0.16-0.922 1.057-1.524 1.971-1.323l0.783 0.172-0.185-0.84c-0.2-0.909 0.394-1.802 1.309-1.969l0.846-0.154-0.461-0.655c-0.539-0.765-0.33-1.825 0.458-2.33z"></path>
<path fill="#fd9827" style="fill: var(--color17, #fd9827)" d="M28.262 16.608l0.461 0.655-0.846 0.154c-0.916 0.168-1.509 1.061-1.309 1.969l0.184 0.839-0.782-0.172c-0.914-0.201-1.811 0.401-1.972 1.323l-0.137 0.79-0.708-0.489c-0.765-0.529-1.817-0.317-2.318 0.466l-0.463 0.725v-18.046l0.432 0.675c0.504 0.789 1.564 0.997 2.329 0.458l0.656-0.461 0.154 0.846c0.167 0.915 1.060 1.509 1.969 1.309l0.84-0.185-0.172 0.783c-0.201 0.914 0.401 1.811 1.323 1.971l0.789 0.137-0.489 0.707c-0.529 0.766-0.317 1.817 0.466 2.318l0.724 0.463-0.675 0.432c-0.789 0.504-0.997 1.564-0.458 2.33z"></path>
<path fill="#ffe05f" style="fill: var(--color18, #ffe05f)" d="M20.373 20.17c3.493 0 6.324-2.831 6.324-6.324s-2.831-6.324-6.324-6.324-6.324 2.831-6.324 6.324c0 3.493 2.831 6.324 6.324 6.324z"></path>
<path fill="#f9cb0d" style="fill: var(--color19, #f9cb0d)" d="M26.698 13.846c0 3.493-2.832 6.324-6.324 6.324v-12.648c3.493 0 6.324 2.831 6.324 6.324z"></path>
<path fill="#fff" style="fill: var(--color20, #fff)" d="M20.937 15.873c-0.163 0-0.324 0.011-0.482 0.029 0.016-0.177 0.024-0.357 0.024-0.538 0-3.357-2.721-6.079-6.079-6.079-2.796 0-5.151 1.888-5.86 4.458-0.225-0.030-0.455-0.045-0.688-0.045-2.885 0-5.224 2.339-5.224 5.224s2.339 5.224 5.224 5.224h13.085c2.285 0 4.137-1.852 4.137-4.137s-1.852-4.137-4.137-4.137z"></path>
<path fill="#daefec" style="fill: var(--color21, #daefec)" d="M25.073 20.009c0 2.285-1.852 4.137-4.137 4.137h-7.086v-14.837c0.181-0.017 0.364-0.025 0.549-0.025 3.357 0 6.079 2.721 6.079 6.079 0 0.181-0.009 0.361-0.024 0.538 0.158-0.018 0.319-0.029 0.482-0.029 2.285 0 4.137 1.853 4.137 4.137z"></path>
</symbol>
<symbol id="icon-wind" viewBox="0 0 32 32">
<path fill="#007aff" style="fill: var(--color22, #007aff)" d="M25.739 4.174c-3.453 0-6.261 2.809-6.261 6.261 0 0.384 0.311 0.696 0.696 0.696s0.696-0.312 0.696-0.696c0-2.685 2.185-4.87 4.87-4.87s4.869 2.184 4.869 4.87-2.185 4.87-4.869 4.87h-25.044c-0.384 0-0.696 0.312-0.696 0.696s0.312 0.696 0.696 0.696h25.044c3.452 0 6.261-2.809 6.261-6.261s-2.808-6.261-6.261-6.261z"></path>
<path fill="#007aff" style="fill: var(--color22, #007aff)" d="M0.696 12.522h11.826c2.685 0 4.87-2.184 4.87-4.87s-2.184-4.87-4.87-4.87c-2.685 0-4.87 2.184-4.87 4.87 0 0.384 0.312 0.696 0.696 0.696s0.696-0.312 0.696-0.696c0-1.918 1.56-3.478 3.478-3.478s3.478 1.56 3.478 3.478c0 1.918-1.56 3.478-3.478 3.478h-11.826c-0.384 0-0.696 0.312-0.696 0.696s0.312 0.696 0.696 0.696z"></path>
<path fill="#007aff" style="fill: var(--color22, #007aff)" d="M24.348 27.826c-1.918 0-3.478-1.56-3.478-3.478 0-0.384-0.311-0.696-0.696-0.696s-0.696 0.312-0.696 0.696c0 2.685 2.185 4.87 4.87 4.87s4.87-2.184 4.87-4.87c0-2.685-2.185-4.87-4.87-4.87h-23.652c-0.384 0-0.696 0.312-0.696 0.696s0.312 0.696 0.696 0.696h23.652c1.918 0 3.478 1.56 3.478 3.478s-1.56 3.478-3.478 3.478z"></path>
</symbol>
<symbol id="icon-temp" viewBox="0 0 32 32">
<path fill="#4f667a" style="fill: var(--color8, #4f667a)" d="M19.719 3.816h4.736c0.259 0 0.469-0.21 0.469-0.469s-0.21-0.469-0.469-0.469h-4.736c-0.259 0-0.469 0.21-0.469 0.469s0.21 0.469 0.469 0.469z"></path>
<path fill="#4f667a" style="fill: var(--color8, #4f667a)" d="M19.719 5.981h2.368c0.259 0 0.469-0.21 0.469-0.469s-0.21-0.469-0.469-0.469h-2.368c-0.259 0-0.469 0.21-0.469 0.469s0.21 0.469 0.469 0.469z"></path>
<path fill="#4f667a" style="fill: var(--color8, #4f667a)" d="M24.456 7.231h-4.736c-0.259 0-0.469 0.21-0.469 0.469s0.21 0.469 0.469 0.469h4.736c0.259 0 0.469-0.21 0.469-0.469s-0.21-0.469-0.469-0.469z"></path>
<path fill="#4f667a" style="fill: var(--color8, #4f667a)" d="M19.719 10.333h2.368c0.259 0 0.469-0.21 0.469-0.469s-0.21-0.469-0.469-0.469h-2.368c-0.259 0-0.469 0.21-0.469 0.469s0.21 0.469 0.469 0.469z"></path>
<path fill="#4f667a" style="fill: var(--color8, #4f667a)" d="M24.456 11.551h-4.736c-0.259 0-0.469 0.21-0.469 0.469s0.21 0.469 0.469 0.469h4.736c0.259 0 0.469-0.21 0.469-0.469s-0.21-0.469-0.469-0.469z"></path>
<path fill="#4f667a" style="fill: var(--color8, #4f667a)" d="M19.719 14.653h2.368c0.259 0 0.469-0.21 0.469-0.469s-0.21-0.469-0.469-0.469h-2.368c-0.259 0-0.469 0.21-0.469 0.469s0.21 0.469 0.469 0.469z"></path>
<path fill="#4f667a" style="fill: var(--color8, #4f667a)" d="M24.456 15.911h-4.736c-0.259 0-0.469 0.21-0.469 0.469s0.21 0.469 0.469 0.469h4.736c0.259 0 0.469-0.21 0.469-0.469s-0.21-0.469-0.469-0.469z"></path>
<path fill="#4f667a" style="fill: var(--color8, #4f667a)" d="M22.087 18.076h-2.368c-0.259 0-0.469 0.21-0.469 0.469s0.21 0.469 0.469 0.469h2.368c0.259 0 0.469-0.21 0.469-0.469s-0.21-0.469-0.469-0.469z"></path>
<path fill="#e9f5ff" style="fill: var(--color9, #e9f5ff)" d="M20.422 25.327c0 1.8-0.706 3.487-1.988 4.752-1.259 1.241-2.919 1.921-4.685 1.921-0.032 0-0.064 0-0.096-0.001-0.283-0.004-0.562-0.026-0.838-0.065-1.411-0.199-2.723-0.846-3.757-1.871-1.236-1.224-1.94-2.849-1.981-4.574-0.056-2.339 1.118-4.531 3.078-5.785v-16.11c0-1.658 1.128-3.056 2.656-3.47 0.299-0.081 0.613-0.124 0.937-0.124 1.981 0 3.594 1.612 3.594 3.594v16.11c1.906 1.221 3.079 3.351 3.079 5.623z"></path>
<path fill="#cdeaf7" style="fill: var(--color10, #cdeaf7)" d="M20.422 25.327c0 1.8-0.706 3.487-1.988 4.752-1.259 1.241-2.919 1.921-4.685 1.921-1.168 0-1.875 0-1.875 0 0.318 0 0.632-0.022 0.941-0.066 1.409-0.198 2.711-0.837 3.743-1.856 1.282-1.264 1.988-2.951 1.988-4.752 0-2.273-1.173-2.516-3.079-3.737v-17.996c0-1.658-1.128-3.056-2.656-3.47 0.299-0.081 0.613-0.124 0.938-0.124 1.981 0 3.594 1.612 3.594 3.594v16.11c1.906 1.221 3.079 3.351 3.079 5.623z"></path>
<path fill="#ff6e6e" style="fill: var(--color11, #ff6e6e)" d="M18.547 25.337c0 1.294-0.508 2.507-1.43 3.416-0.904 0.893-2.101 1.382-3.373 1.382-0.022 0-0.043 0-0.064-0.001-0.24-0.003-0.478-0.025-0.711-0.063-0.972-0.161-1.873-0.619-2.591-1.33-0.89-0.881-1.397-2.048-1.426-3.286-0.041-1.748 0.871-3.382 2.381-4.265 0.429-0.251 0.697-0.716 0.697-1.214v-16.373c0-0.666 0.381-1.246 0.938-1.531 0.234-0.121 0.5-0.188 0.781-0.188 0.948 0 1.718 0.771 1.718 1.719v16.373c0 0.497 0.268 0.963 0.697 1.214 1.469 0.859 2.383 2.448 2.383 4.147z"></path>
<path fill="#f44e92" style="fill: var(--color12, #f44e92)" d="M18.547 25.337c0 1.294-0.508 2.507-1.43 3.416-0.904 0.893-2.101 1.382-3.373 1.382-0.022 0-0.043 0-0.064-0.001-0.24-0.003-0.478-0.025-0.711-0.063 0.973-0.159 1.871-0.612 2.586-1.318 0.922-0.909 1.429-2.122 1.429-3.416 0-1.699-0.913-3.288-2.383-4.147-0.429-0.251-0.697-0.716-0.697-1.214v-16.373c0-0.666-0.381-1.245-0.937-1.531 0.234-0.121 0.5-0.188 0.781-0.188 0.948 0 1.718 0.771 1.718 1.719v16.373c0 0.497 0.268 0.963 0.697 1.214 1.469 0.859 2.383 2.448 2.383 4.147z"></path>
<path fill="#4f667a" style="fill: var(--color8, #4f667a)" d="M15.468 3.603v4.096h-3.437v-4.096c0-0.666 0.381-1.246 0.938-1.531 0.234-0.121 0.5-0.188 0.781-0.188 0.947 0 1.718 0.771 1.718 1.719z"></path>
<path fill="#3a5366" style="fill: var(--color13, #3a5366)" d="M15.468 3.603v4.096h-1.563v-4.096c0-0.666-0.381-1.245-0.937-1.531 0.234-0.121 0.5-0.188 0.781-0.188 0.948 0 1.718 0.771 1.718 1.719z"></path>
</symbol>
<symbol id="icon-pressure" viewBox="0 0 32 32">
<path fill="#000" style="fill: var(--color1, #000)" d="M17.069 0.474c-0.534-0.534-1.336-0.668-2.004-0.134 0 0-0.134 0-0.134 0.134-1.069 1.336-10.954 13.359-10.954 19.503 0 6.679 5.343 12.023 12.023 12.023s12.023-5.343 12.023-12.023c0-6.145-9.885-18.168-10.954-19.503z"></path>
<path fill="#fff" style="fill: var(--color20, #fff)" d="M12.977 23.552l8.029-8.029-1.889-1.889-8.029 8.029 1.889 1.889z"></path>
<path fill="#fff" style="fill: var(--color20, #fff)" d="M11.992 17.306c0.738 0 1.336-0.598 1.336-1.336s-0.598-1.336-1.336-1.336c-0.738 0-1.336 0.598-1.336 1.336s0.598 1.336 1.336 1.336z"></path>
<path fill="#fff" style="fill: var(--color20, #fff)" d="M20.008 22.649c0.738 0 1.336-0.598 1.336-1.336s-0.598-1.336-1.336-1.336c-0.738 0-1.336 0.598-1.336 1.336s0.598 1.336 1.336 1.336z"></path>
</symbol>
<symbol id="icon-humidity" viewBox="0 0 32 32">
<path d="M15.619 0.052c-0.179 0.054-0.685 0.337-0.685 0.382 0 0.019-0.248 0.342-0.549 0.719-4.857 6.063-8.404 11.715-9.708 15.469-0.525 1.512-0.682 2.309-0.682 3.466-0 0.017-0 0.037-0 0.057 0 1.326 0.229 2.598 0.649 3.779l-0.024-0.079c1.286 3.75 4.281 6.61 8.030 7.683l0.084 0.021c1.233 0.339 1.851 0.418 3.266 0.418 1.046 0 1.364-0.019 1.92-0.116 2.53-0.438 4.64-1.491 6.405-3.197 0.721-0.697 1.139-1.192 1.669-1.977 0.766-1.157 1.363-2.505 1.715-3.95l0.018-0.087c0.281-1.273 0.362-2.885 0.194-3.84-0.576-3.279-3.141-8.052-7.567-14.080-1.492-2.035-3.21-4.207-3.49-4.413-0.349-0.258-0.879-0.367-1.245-0.256zM16.973 19.533l-4.013 4.012-1.868-1.864 8.027-8.027 1.868 1.866-4.013 4.013zM12.522 14.749c0.251 0.106 0.522 0.364 0.667 0.638 0.16 0.3 0.16 0.874 0 1.177-0.225 0.437-0.672 0.73-1.188 0.73-0.383 0-0.729-0.162-0.972-0.421l-0.001-0.001c-0.223-0.235-0.361-0.554-0.361-0.904 0-0.504 0.284-0.942 0.701-1.162l0.007-0.003c0.188-0.087 0.409-0.138 0.641-0.138 0.181 0 0.355 0.031 0.516 0.088l-0.011-0.003zM20.569 20.111c0.945 0.458 1.022 1.79 0.135 2.323-0.153 0.093-0.387 0.184-0.52 0.204-0.515 0.077-1.11-0.243-1.373-0.741-0.16-0.301-0.16-0.877-0.002-1.176 0.333-0.625 1.147-0.906 1.76-0.61z"></path>
</symbol>
<symbol id="icon-search" viewBox="0 0 32 32">
<path d="M12.122 16.001c-2.139 0-3.879-1.74-3.879-3.879 0-0.803-0.651-1.455-1.455-1.455s-1.455 0.651-1.455 1.455c0 3.743 3.045 6.788 6.788 6.788 0.803 0 1.455-0.651 1.455-1.455s-0.651-1.455-1.455-1.455z"></path>
<path d="M31.574 29.517l-9.918-9.918c1.62-2.061 2.587-4.658 2.587-7.477 0-6.684-5.438-12.122-12.122-12.122s-12.122 5.438-12.122 12.122 5.438 12.122 12.122 12.122c2.819 0 5.416-0.967 7.477-2.587l9.918 9.918c0.284 0.284 0.656 0.426 1.028 0.426s0.745-0.142 1.028-0.426c0.568-0.568 0.568-1.489 0-2.057zM2.909 12.122c0-5.080 4.133-9.213 9.213-9.213s9.213 4.133 9.213 9.213c0 5.080-4.133 9.213-9.213 9.213s-9.213-4.133-9.213-9.213z"></path>
</symbol>
</defs>
</svg>
